<svg style="display:none">
	<symbol id="Instagram" xmlns="http://www.w3.org/2000/svg" width="28" height="28" fill="#000000" viewBox="0 0 256 256"><path d="M128,82a46,46,0,1,0,46,46A46.06,46.06,0,0,0,128,82Zm0,80a34,34,0,1,1,34-34A34,34,0,0,1,128,162ZM176,26H80A54.06,54.06,0,0,0,26,80v96a54.06,54.06,0,0,0,54,54h96a54.06,54.06,0,0,0,54-54V80A54.06,54.06,0,0,0,176,26Zm42,150a42,42,0,0,1-42,42H80a42,42,0,0,1-42-42V80A42,42,0,0,1,80,38h96a42,42,0,0,1,42,42ZM190,76a10,10,0,1,1-10-10A10,10,0,0,1,190,76Z"></path></symbol>

  <svg id="WhatsApp" xmlns="http://www.w3.org/2000/svg" width="28" height="28" fill="#000000" viewBox="0 0 256 256"><path d="M186.68,146.63l-32-16a6,6,0,0,0-6,.38L133,141.46A42.49,42.49,0,0,1,114.54,123L125,107.33a6,6,0,0,0,.38-6l-16-32A6,6,0,0,0,104,66a38,38,0,0,0-38,38,86.1,86.1,0,0,0,86,86,38,38,0,0,0,38-38A6,6,0,0,0,186.68,146.63ZM152,178a74.09,74.09,0,0,1-74-74,26,26,0,0,1,22.42-25.75l12.66,25.32-10.39,15.58a6,6,0,0,0-.54,5.63,54.43,54.43,0,0,0,29.07,29.07,6,6,0,0,0,5.63-.54l15.58-10.39,25.32,12.66A26,26,0,0,1,152,178ZM128,26A102,102,0,0,0,38.35,176.69L26.73,211.56a14,14,0,0,0,17.71,17.71l34.87-11.62A102,102,0,1,0,128,26Zm0,192a90,90,0,0,1-45.06-12.08,6.09,6.09,0,0,0-3-.81,6.2,6.2,0,0,0-1.9.31L40.65,217.88a2,2,0,0,1-2.53-2.53L50.58,178a6,6,0,0,0-.5-4.91A90,90,0,1,1,128,218Z"></path></svg>

  <svg id="Email" xmlns="http://www.w3.org/2000/svg" width="28" height="28" fill="#000000" viewBox="0 0 256 256"><path d="M224,50H32a6,6,0,0,0-6,6V192a14,14,0,0,0,14,14H216a14,14,0,0,0,14-14V56A6,6,0,0,0,224,50ZM208.58,62,128,135.86,47.42,62ZM216,194H40a2,2,0,0,1-2-2V69.64l86,78.78a6,6,0,0,0,8.1,0L218,69.64V192A2,2,0,0,1,216,194Z"></path></svg>

  <svg id="LinkedIn" xmlns="http://www.w3.org/2000/svg" width="28" height="28" fill="#000000" viewBox="0 0 256 256"><path d="M216,26H40A14,14,0,0,0,26,40V216a14,14,0,0,0,14,14H216a14,14,0,0,0,14-14V40A14,14,0,0,0,216,26Zm2,190a2,2,0,0,1-2,2H40a2,2,0,0,1-2-2V40a2,2,0,0,1,2-2H216a2,2,0,0,1,2,2ZM94,112v64a6,6,0,0,1-12,0V112a6,6,0,0,1,12,0Zm88,28v36a6,6,0,0,1-12,0V140a22,22,0,0,0-44,0v36a6,6,0,0,1-12,0V112a6,6,0,0,1,12,0v2.11A34,34,0,0,1,182,140ZM98,84A10,10,0,1,1,88,74,10,10,0,0,1,98,84Z"></path></svg>
</svg>
